<svg xmlns:xlink="http://www.w3.org/1999/xlink" xmlns="http://www.w3.org/2000/svg" width="40" height="40" viewBox="0 0 40 40" fill="none"><path d="M24.0907 0.0541949C25.5667 -0.10915 27.0718 0.101921 28.4717 0.617498C29.4352 0.965698 30.3936 1.35625 31.4039 1.52631C31.8999 1.62513 32.413 1.58412 32.9052 1.71453C33.9054 1.94644 34.7954 2.54268 35.5556 3.25319C36.3987 4.0558 37.3312 4.74144 38.2402 5.45532C38.8141 5.91107 39.2404 6.54697 39.5375 7.23329C39.692 7.59829 39.8973 7.95926 40.226 8.17437C41.1312 8.80086 41.8667 9.71169 42.2651 10.7818C42.7313 12.0274 42.8042 13.3994 42.7047 14.7229C42.5945 16.1446 42.0485 17.53 41.1363 18.5827C40.85 18.8892 40.7379 19.3248 40.7081 19.7443C40.6137 20.7895 40.2634 21.822 39.6293 22.6367C38.9465 23.524 37.9925 24.1277 36.9954 24.5357C35.9806 24.9525 34.8981 25.1703 33.8123 25.222C32.9027 25.2758 31.9912 25.1447 31.0822 25.2207C30.8079 25.2355 30.5304 25.3309 30.3239 25.5285C30.2131 25.628 30.1776 25.7833 30.1225 25.9198C29.6772 27.1472 28.8499 28.2005 27.8256 28.9332C26.6613 29.797 25.2867 30.2292 23.9659 30.7368C23.4098 30.9418 22.9613 31.3868 22.6471 31.9057C22.3126 32.4757 21.8635 32.9691 21.3352 33.3395C20.9089 33.6353 20.5016 33.9768 20.1937 34.4117C19.9011 34.8009 19.7415 35.2741 19.5121 35.7036C18.8679 36.962 18.0267 38.092 17.1386 39.1641C16.9213 39.429 16.6812 39.7341 16.3322 39.7805C15.9369 39.841 15.5974 39.5789 15.2338 39.4666C14.8968 39.3073 14.4857 39.1466 14.3362 38.7561C14.2437 38.1941 14.6251 37.7243 14.7986 37.2255C14.8955 36.9452 15.085 36.5694 14.8423 36.316C14.551 36.0794 14.1569 36.0955 13.8098 36.0404C12.4523 35.9201 11.1126 35.4899 9.94829 34.733C9.12227 34.1851 8.32602 33.519 7.82939 32.6122C7.34163 31.7424 7.19594 30.6857 7.35367 29.6942C7.38471 29.4858 7.43602 29.2458 7.30679 29.0623C7.20861 28.903 7.02807 28.8519 6.86844 28.7968C5.79094 28.4358 4.78059 27.8053 4.01791 26.9126C3.36292 26.1564 2.8986 25.2314 2.59074 24.2621C2.11945 22.745 1.93259 21.1035 2.22144 19.5251C2.33166 18.8986 2.50839 18.2849 2.7434 17.6981C2.98222 17.1207 2.91887 16.4733 2.89417 15.8603C2.84919 13.9775 3.01452 12.053 3.66824 10.2864C4.21491 8.78876 5.14482 7.4531 6.33128 6.45623C6.83677 6.04349 7.42588 5.77193 7.98712 5.45801C8.61614 5.10645 9.16344 4.58953 9.53908 3.9469C10.2093 2.89222 11.3425 2.3464 12.42 1.89333C14.525 0.970403 16.8662 0.629598 19.1188 1.02956C19.8669 1.1882 20.6391 1.02754 21.3447 0.750594C22.2259 0.392984 23.1513 0.157041 24.0907 0.0541949ZM26.8798 0.97847C26.6518 1.03964 26.47 1.20903 26.2546 1.30247C25.9005 1.46716 25.4856 1.44162 25.1404 1.26617C24.8477 1.11089 24.4917 1.06048 24.1915 1.22046C23.8108 1.42347 23.4415 1.75419 23.3572 2.22002C23.2774 2.67913 23.3578 3.17724 23.6011 3.5698C23.7746 3.83397 24.0977 3.9059 24.3834 3.88237C24.8078 3.89649 25.1733 3.6303 25.5857 3.57047C25.8511 3.52947 26.1381 3.41654 26.394 3.55434C26.6537 3.68475 26.9305 3.80104 27.2238 3.78558C27.6387 3.78759 28.0219 3.51602 28.2284 3.14295C28.4394 2.74703 28.5616 2.2664 28.478 1.81401C28.257 1.15123 27.5 0.825208 26.8798 0.97847ZM14.6105 2.28388C13.3981 2.51915 12.2667 3.18463 11.4331 4.14722C11.3165 4.31729 11.3115 4.53911 11.2557 4.73539C11.428 4.77505 11.601 4.82144 11.779 4.81606C11.9962 4.81539 12.1901 4.69103 12.4042 4.67019C13.0794 4.61574 13.7572 4.6144 14.4344 4.62112C14.6947 4.58482 14.8107 4.87656 14.9671 5.03788C14.7955 5.16291 14.6327 5.32021 14.4211 5.36121C12.6208 5.80352 10.7749 6.23709 9.16851 7.24875C8.85178 7.45108 8.51795 7.76836 8.53316 8.19588C8.54583 8.60121 8.84988 8.89093 9.11657 9.13897C9.4637 8.83514 9.79309 8.50375 10.1789 8.25369C11.7498 7.23329 13.5545 6.66057 15.3789 6.44816C15.6931 6.4206 16.0345 6.41791 16.3024 6.21558C16.4836 6.08584 16.5894 5.87679 16.6825 5.67378C17.1709 4.64196 17.926 3.74457 18.8686 3.15976C19.0181 3.07775 19.1314 2.94533 19.2429 2.81425C17.8348 2.00761 16.1517 1.97131 14.6105 2.28388ZM20.4205 2.98835C19.7408 4.26082 18.9522 5.48624 18.4974 6.87769C18.2148 7.73744 18.1046 8.66507 18.2212 9.56985C18.2706 9.92074 18.3789 10.2636 18.3764 10.6218C18.3935 11.0796 18.2852 11.5367 18.085 11.942C17.9101 12.3003 17.6523 12.6021 17.4382 12.9335C16.6369 14.1549 15.3491 15.0947 13.9232 15.1881C13.0459 15.2284 12.1597 14.8755 11.5211 14.2363C11.0448 13.7536 10.787 13.0592 10.7673 12.3662C10.7148 11.5092 10.996 10.6561 11.4743 9.97183C12.0659 9.1094 12.8894 8.47753 13.6489 7.79457C13.5191 7.64938 13.3879 7.48738 13.2011 7.42823C12.9806 7.36773 12.7507 7.43764 12.5556 7.54922C11.1651 8.38006 9.90521 9.53221 9.11657 11.0218C8.78274 11.6705 8.48565 12.3602 8.40267 13.1016C8.30828 13.835 8.47044 14.5939 8.81884 15.2325C9.3047 16.1265 10.0743 16.8276 10.9504 17.2645C12.1369 17.8635 13.521 17.9952 14.7936 17.6604C15.8818 17.3721 16.8783 16.7046 17.5833 15.7776C17.9171 15.3535 18.1604 14.8621 18.4359 14.3956C19.0732 13.3073 19.7402 12.2378 20.4047 11.1683C20.6201 10.8228 21.0084 10.6245 21.3967 10.646C22.4748 10.6817 23.5548 10.6904 24.633 10.6508C25.8403 10.6407 27.0623 10.4034 28.1524 9.83873C28.5534 9.63909 28.9138 9.34803 29.3433 9.21359C29.9863 8.97429 30.6767 9.02336 31.3463 9.01529C32.4023 9.02873 33.457 9.07175 34.5129 9.08721C34.8474 9.0899 35.2541 9.04688 35.4447 8.70877C35.5417 8.55618 35.4067 8.39418 35.3117 8.28461C35.0476 8.01573 34.6618 7.98682 34.321 7.91221C33.7737 7.80667 33.2118 7.60233 32.8184 7.16741C32.4935 6.81384 32.3187 6.33993 32.2103 5.86805C32.1432 5.64622 32.2097 5.39684 32.3421 5.21736C32.4865 5.08359 32.6842 5.03721 32.8679 4.99755C33.3866 4.92361 33.9378 5.06343 34.3565 5.39885C34.6307 5.60656 34.7308 5.98569 35.0203 6.17659C35.3719 6.42665 35.8305 6.32783 36.1916 6.15306C36.3784 6.07509 36.4728 5.83982 36.4 5.64219C36.1903 4.88395 35.5987 4.28838 34.9069 4.02286C34.0157 3.68407 32.9983 3.56846 32.1052 3.96102C31.4014 4.26351 30.8756 4.92361 30.6134 5.66908C30.4538 6.15508 30.2384 6.61688 30.0591 7.09481C29.7848 8.00027 28.8201 8.52122 27.9599 8.33906C28.0479 7.80264 28.155 7.26354 28.1353 6.71637C28.1233 6.14903 28.0378 5.53733 27.6729 5.09569C27.182 4.50416 26.3655 4.27964 25.6535 4.4766C25.1334 4.62381 24.6342 4.89874 24.2542 5.30744C23.7772 5.81562 23.5599 6.5463 23.5688 7.25345C23.5726 7.50486 23.5795 7.78382 23.4212 7.99086C23.2635 8.21806 22.9752 8.2557 22.7288 8.2678C22.2632 8.27654 21.8002 8.21403 21.3365 8.17571C21.168 8.15218 20.978 8.17504 20.8367 8.05606C20.4313 7.73811 20.1975 7.2232 20.1089 6.70696C20.0018 6.12349 20.0747 5.48154 20.3907 4.98142C20.7037 4.48735 21.04 4.00942 21.4068 3.55837C21.5449 3.38965 21.6716 3.14161 21.5531 2.92314C21.4125 2.66569 21.1351 2.41698 20.8361 2.49966C20.6283 2.57629 20.5244 2.79946 20.4205 2.98835ZM20.5973 6.30296C20.8449 6.35069 21.116 6.38363 21.3492 6.25793C21.6393 6.10668 21.7862 5.75983 21.8185 5.43314C21.8426 5.04864 21.6735 4.68901 21.4841 4.37308C21.0134 4.88798 20.4465 5.51918 20.5973 6.30296ZM35.0102 7.00138C35.0051 7.0491 34.995 7.14456 34.9899 7.19296C35.2648 7.42218 35.5784 7.61241 35.7906 7.91423C35.9889 8.20327 36.0744 8.55618 36.2359 8.86606C36.2815 8.96824 36.3816 9.02403 36.4804 9.05226C36.9124 9.18065 37.3647 9.18132 37.8088 9.21695C38.0007 9.22502 38.206 9.23443 38.384 9.14301C38.6114 8.97697 38.5195 8.6402 38.4866 8.39955C38.4017 8.08698 38.3808 7.74954 38.249 7.45511C38.007 7.15397 37.71 6.78627 37.2995 6.81451C36.5336 6.83198 35.7716 6.92139 35.0102 7.00138ZM6.39526 10.2179C5.78081 10.9956 5.27848 11.8916 5.02256 12.8751C4.77045 13.8135 4.75525 14.8144 4.93452 15.7689C4.98899 16.0149 5.05994 16.3026 5.29242 16.4243C5.61611 16.5856 5.96197 16.3712 6.29897 16.4182C6.4776 16.6333 6.42249 16.9372 6.43263 17.2007C6.42756 17.6705 6.35535 18.213 5.97971 18.5202C5.5705 18.8442 5.02827 18.7958 4.54938 18.7461C4.315 18.8355 3.978 18.9202 3.94443 19.2334C3.80634 19.8659 3.67204 20.5072 3.66951 21.1593C3.74426 21.408 3.93366 21.6258 4.1617 21.7239C4.66213 21.738 5.17016 21.6748 5.64905 21.5135C6.14568 21.3461 6.59099 20.9912 6.84057 20.5005C7.36064 19.4808 7.77618 18.4046 8.13852 17.3116C8.22973 17.0387 8.28548 16.7503 8.27154 16.4592C8.27154 15.8764 7.95798 15.3232 7.5038 15.0066C7.25548 14.8285 6.96219 14.7048 6.76772 14.4541C6.67461 14.3505 6.66827 14.1919 6.72148 14.0662C6.91279 13.5876 7.27955 13.2327 7.61528 12.869C7.85536 12.6237 7.8826 12.26 7.96242 11.9373C8.10304 11.3142 8.22213 10.6864 8.36529 10.0639C8.0663 9.82395 7.7255 9.57725 7.33213 9.60414C6.94319 9.62296 6.63913 9.9241 6.39526 10.2179ZM30.8471 9.73992C30.6096 9.81924 30.3968 9.98124 30.2568 10.2004C30.0141 10.5593 30.0135 11.0265 29.8095 11.407C29.4802 12.0691 29.2755 12.8327 29.3978 13.5836C29.4491 14.0662 29.7006 14.4937 29.7462 14.9777C29.7715 15.3064 29.7665 15.6459 29.6582 15.9591C29.4421 16.6454 28.9176 17.1408 28.5414 17.7257C28.3089 18.1014 27.9725 18.4348 27.8801 18.8865C27.8154 19.2347 28.1106 19.4835 28.3729 19.6159C29.4067 20.1752 30.1998 21.1438 30.7236 22.2287C30.8794 22.5406 31.0327 22.9043 31.3545 23.0562C31.6504 23.19 31.9538 22.9809 32.1698 22.7793C32.6493 22.304 33.0332 21.7293 33.5298 21.2722C34.3102 20.559 35.3237 20.2572 36.2657 19.8686C36.4849 19.747 36.7167 19.878 36.9295 19.9506C36.8472 20.1691 36.8276 20.4467 36.6268 20.5879C36.31 20.8366 35.9053 20.8668 35.5391 20.9825C34.912 21.1707 34.3159 21.5189 33.8776 22.0358C33.7426 22.2207 33.6115 22.4707 33.6869 22.708C33.8567 22.9547 34.1766 23.032 34.4508 22.9923C35.2807 22.9036 36.1156 22.8061 36.9213 22.5689C37.7404 22.3181 38.4226 21.6392 38.7171 20.7909C39.0009 19.999 39.1036 19.0707 38.7482 18.2849C38.529 17.7868 38.078 17.4353 37.5833 17.2961C37.2197 17.1758 36.8295 17.2262 36.4665 17.1025C35.0773 16.7617 33.6058 17.563 32.8514 18.8018C32.5917 19.2079 32.458 19.6965 32.1457 20.0656C32.0007 20.2229 31.7314 20.2847 31.5623 20.1355C31.2614 19.9056 31.0562 19.5581 30.9308 19.1924C30.792 18.7736 30.7357 18.297 30.9022 17.8769C31.1689 17.2276 31.4895 16.5997 31.8854 16.0283C32.0735 15.7642 32.2737 15.4758 32.5784 15.3582C32.8717 15.2526 33.1846 15.3313 33.4753 15.4066C33.9181 15.5376 34.3685 15.6472 34.798 15.8247C35.5138 16.1009 36.3062 15.9221 36.9771 15.5901C37.4623 15.3488 38.0286 15.1068 38.5613 15.3272C39.1397 15.5739 39.4494 16.1823 39.8194 16.6743C39.998 16.9069 40.2292 17.1812 40.5396 17.1556C40.8595 17.075 41.1002 16.8007 41.2757 16.5204C41.638 15.8899 41.7628 15.1242 41.6956 14.3956C41.6456 14.0447 41.5582 13.6642 41.2966 13.4216C41.1255 13.2575 40.8652 13.2885 40.6726 13.3886C40.3141 13.5688 39.9498 13.7348 39.5818 13.8921C39.5419 13.8652 39.4615 13.8114 39.4215 13.7845C39.4494 13.5567 39.4399 13.3201 39.509 13.1002C39.6452 12.7473 39.9137 12.4738 40.0506 12.1209C40.2026 11.7263 40.3692 11.3189 40.3635 10.8847C40.3198 10.439 39.9682 10.1399 39.737 9.79571C39.5571 9.93553 39.3645 10.0559 39.1935 10.2064C38.9883 10.3866 38.854 10.6669 38.5892 10.761C38.3529 10.8598 38.1021 10.7691 37.8766 10.6844C36.7408 10.2239 35.5379 9.95032 34.3223 9.91268C34.015 9.90394 33.6996 10.027 33.495 10.2743C33.2289 10.599 33.1352 11.0621 33.2131 11.4796C33.2847 11.8688 33.5735 12.1753 33.9054 12.3353C34.3299 12.5416 34.7967 12.6183 35.2509 12.7191C35.5854 12.7991 35.9293 12.8139 36.2701 12.8502C36.298 12.9161 36.3265 12.9819 36.3556 13.0478C36.2441 13.1339 36.1308 13.2212 35.9984 13.2676C35.2363 13.5405 34.4908 13.8766 33.7002 14.0494C33.2663 14.1617 32.7703 14.1617 32.3959 13.8699C31.9582 13.5137 31.772 12.9315 31.6231 12.3911C31.3748 11.4534 31.518 10.4195 32.0026 9.59405C31.6225 9.69488 31.219 9.59876 30.8471 9.73992ZM11.8328 10.9949C11.6314 11.5401 11.6003 12.1639 11.8239 12.707C12.1153 13.4612 12.7824 13.9902 13.507 14.2121C14.3419 14.4783 15.3054 14.4615 16.0592 13.9546C16.5096 13.6595 16.8301 13.187 17.022 12.6694C16.2587 13.0646 15.3757 13.2743 14.5376 13.0498C13.4164 12.7843 12.5233 11.9286 11.8328 10.9949ZM23.9235 12.1511C23.4719 12.4738 23.1627 12.9645 22.7339 13.3154C21.9123 14.0413 20.8639 14.4292 19.8086 14.5408C19.4697 14.571 19.1156 14.6598 18.8565 14.9071C18.555 15.174 18.4562 15.5961 18.2332 15.9255C17.6853 16.8222 16.8073 17.4413 15.8679 17.7902C15.3155 18.01 14.7315 18.1061 14.1626 18.2641C14.0448 19.0996 14.2019 19.9594 14.5294 20.7237C14.8151 21.371 15.2306 22.0311 15.8913 22.2865C15.9452 21.9148 16.0009 21.5431 16.0662 21.1734C16.1758 20.5449 16.2214 19.8922 16.4754 19.3047C16.6977 18.7736 17.0721 18.3199 17.5332 18.0093C18.0875 17.6342 18.7292 17.4393 19.3646 17.286C20.703 16.9802 22.0422 16.6764 23.3775 16.3577C23.6765 16.2999 23.9875 16.1762 24.1668 15.9C24.3346 15.668 24.3188 15.3588 24.422 15.0987C24.5462 14.8782 24.7793 14.7693 24.9655 14.6174C25.3032 15.0805 25.2196 15.7084 25.0333 16.2193C24.7641 16.9466 24.1446 17.4816 23.4529 17.7149C22.4989 18.0335 21.4968 18.1249 20.5162 18.3091C19.813 18.459 19.1333 18.8348 18.6874 19.4425C18.3111 19.9446 18.1198 20.5939 18.1433 21.2345C18.1445 21.7757 18.396 22.2953 18.294 22.8404C18.2022 23.5624 17.7258 24.1552 17.1703 24.5465C16.5748 24.9652 15.8096 25.0896 15.1198 24.8994C14.2659 24.6809 13.5311 24.0275 13.1529 23.1893C12.605 21.974 12.3782 20.6309 12.2312 19.3026C12.1761 18.9329 12.2065 18.5108 11.9532 18.213C11.6839 17.8924 11.1094 17.7868 10.8484 18.174C10.5228 18.6768 10.2017 19.185 9.8311 19.6535C9.14317 20.5321 8.52745 21.4927 7.68876 22.222C6.86528 22.9285 5.80298 23.2081 4.77235 23.3439C4.56648 23.3768 4.33337 23.3694 4.1617 23.5126C3.98497 23.6612 4.04261 23.9294 4.09709 24.127C4.51834 25.5454 5.63891 26.6901 6.9698 27.1358C7.70523 27.3919 8.50655 27.3616 9.24769 27.1506C9.52197 27.0679 9.8273 27.0141 10.0351 26.7889C10.3936 26.4179 10.4791 25.7336 10.132 25.3255C9.87798 25.0614 9.50297 25.2375 9.20335 25.2866C8.66935 25.3632 8.13091 25.4741 7.58995 25.4257C7.44805 25.4096 7.27449 25.2597 7.35303 25.0957C7.49746 24.7555 7.79138 24.525 8.03463 24.2675C8.85685 23.4824 9.56948 22.5789 10.3873 21.7891C10.533 22.0331 10.6932 22.2711 10.7952 22.5406C11.1151 23.3526 11.3641 24.1956 11.7169 24.9928C12.09 25.8552 12.6468 26.6531 13.4145 27.16C14.2368 27.7145 15.2769 27.9028 16.2195 27.6285C17.2533 27.3428 18.1236 26.5557 18.6513 25.583C19.1074 24.7354 19.3259 23.7795 19.6407 22.8707C19.7548 22.5776 19.9062 22.2341 20.2191 22.1433C20.6011 22.0795 20.938 22.3363 21.2522 22.5285C21.7305 22.8377 22.2189 23.1281 22.7155 23.4031C23.1032 23.6087 23.494 23.8366 23.9305 23.8978C24.4569 23.9872 25.0067 23.8837 25.4774 23.6208C25.6896 23.5012 25.9411 23.3997 26.1805 23.4898C26.4149 23.5906 26.4922 23.883 26.4915 24.1277C26.4865 24.6224 26.3243 25.1414 25.9569 25.4654C24.9218 26.4582 23.2641 26.5093 22.1087 25.7228C21.631 25.4183 21.0198 25.2308 20.4794 25.4506C19.9448 25.6798 19.6534 26.2451 19.381 26.7486C18.9224 27.5969 18.1224 28.2052 17.2343 28.4486C16.2391 28.7215 15.2034 28.7867 14.1791 28.7746C13.4969 28.7733 12.8153 28.6711 12.1331 28.7349C12.1109 28.8129 12.0887 28.8916 12.0672 28.9702C12.3155 29.1235 12.5594 29.2929 12.8362 29.385C14.1994 29.8784 15.6652 29.9886 17.0949 29.8884C18.1977 29.8259 19.2689 29.305 20.029 28.454C20.3147 28.1239 20.6568 27.857 20.9944 27.5915C21.1724 27.449 21.4277 27.4685 21.6057 27.6009C21.949 27.8463 22.243 28.2207 22.6737 28.2886C24.2561 28.5057 25.9379 28.0547 27.1668 26.955C28.1765 26.0629 28.86 24.7703 29.0576 23.393C29.1375 22.8263 28.9937 22.2368 28.6788 21.7736C28.3374 21.2634 27.8458 20.7936 27.2314 20.7432C26.5378 20.6867 25.9474 21.1351 25.3139 21.3542C24.3612 21.738 23.3249 21.5411 22.3418 21.4342C22.0637 21.4369 21.8002 21.1915 21.7647 20.9052C21.9661 20.4487 22.4634 20.2625 22.8808 20.1005C23.755 19.8948 24.5905 19.5023 25.3082 18.9316C26.0468 18.3367 26.736 17.6376 27.194 16.7725C27.621 15.9719 27.7895 15.0227 27.6729 14.1119C27.6102 13.5197 27.5722 12.8643 27.1902 12.3904C26.8032 11.9293 26.2014 11.7908 25.6509 11.6967C25.0454 11.5865 24.4157 11.7686 23.9235 12.1511ZM10.2036 31.5918C10.2017 31.9373 10.4848 32.1753 10.7078 32.385C11.3248 32.9241 12.0057 33.3832 12.738 33.726C13.5697 34.1058 14.4604 34.4251 15.3782 34.3727C16.3126 34.3418 17.207 33.8396 17.7847 33.0646C18.0913 32.6976 18.2205 32.2196 18.4099 31.7834C18.3643 31.7269 18.3194 31.6711 18.2744 31.6153C17.4876 31.6946 16.7465 32.0233 15.9585 32.0879C15.491 32.1383 15.0172 32.1094 14.5579 32.0079C13.2543 31.7592 11.9449 31.5441 10.6356 31.3343C10.4677 31.3034 10.1985 31.3632 10.2036 31.5918ZM17.4965 35.7097C16.884 36.435 16.3303 37.2134 15.7482 37.9663C15.6475 38.1007 15.5385 38.2634 15.567 38.4449C15.5955 38.6378 15.738 38.7729 15.8654 38.8993C16.1789 38.6754 16.4773 38.424 16.7262 38.1209C17.3882 37.3398 17.7911 36.3651 18.3764 35.5255C18.3403 35.4495 18.3035 35.3743 18.268 35.2996C18.0071 35.424 17.696 35.4737 17.4965 35.7097Z" fill="#FFFFFF"></path></svg>